<svg width="92" height="43" viewBox="0 0 92 43" fill="none" xmlns="http://www.w3.org/2000/svg">
<path d="M46 12V8M55 5L53 3M44 1H48M46 20C41.5817 20 38 16.4183 38 12C38 7.58172 41.5817 4 46 4C50.4183 4 54 7.58172 54 12C54 16.4183 50.4183 20 46 20Z" stroke="#00B1F7" stroke-width="2" stroke-linecap="round" stroke-linejoin="round"/>
<path d="M5.70596 28.027C6.24938 28.027 6.75623 28.1838 7.2265 28.4973C7.70723 28.8108 8.09389 29.234 8.38651 29.767C8.67912 30.3 8.82543 30.8957 8.82543 31.554C8.82543 32.202 8.67912 32.7924 8.38651 33.3254C8.09389 33.8584 7.70723 34.2868 7.2265 34.6108C6.75623 34.9243 6.24938 35.0811 5.70596 35.0811H2.82163L2.97839 34.7989V38.0438C2.97839 38.3155 2.89478 38.5454 2.72757 38.7335C2.56037 38.9112 2.34091 39 2.06919 39C1.80793 39 1.5937 38.9112 1.42649 38.7335C1.25928 38.5454 1.17568 38.3155 1.17568 38.0438V28.9832C1.17568 28.7115 1.26451 28.4868 1.44217 28.3092C1.63027 28.1211 1.86018 28.027 2.1319 28.027H5.70596ZM5.70596 33.294C5.90452 33.294 6.09785 33.2104 6.28596 33.0432C6.47407 32.876 6.63083 32.6618 6.75623 32.4005C6.88164 32.1288 6.94434 31.8466 6.94434 31.554C6.94434 31.251 6.88164 30.9688 6.75623 30.7075C6.63083 30.4463 6.47407 30.2373 6.28596 30.0805C6.09785 29.9133 5.90452 29.8297 5.70596 29.8297H2.79028L2.97839 29.5475V33.5449L2.80595 33.294H5.70596ZM20.7161 33.5135C20.7161 34.2973 20.5854 35.0288 20.3242 35.7081C20.0629 36.3874 19.6919 36.9883 19.2112 37.5108C18.7409 38.0229 18.1766 38.4252 17.5182 38.7178C16.8703 39.0105 16.1597 39.1568 15.3863 39.1568C14.613 39.1568 13.9024 39.0105 13.2544 38.7178C12.6065 38.4252 12.0422 38.0229 11.5615 37.5108C11.0912 36.9883 10.7254 36.3874 10.4642 35.7081C10.2029 35.0288 10.0723 34.2973 10.0723 33.5135C10.0723 32.7297 10.2029 31.9982 10.4642 31.3189C10.7254 30.6396 11.0912 30.0439 11.5615 29.5319C12.0422 29.0093 12.6065 28.6018 13.2544 28.3092C13.9024 28.0166 14.613 27.8702 15.3863 27.8702C16.1597 27.8702 16.8703 28.0166 17.5182 28.3092C18.1766 28.6018 18.7409 29.0093 19.2112 29.5319C19.6919 30.0439 20.0629 30.6396 20.3242 31.3189C20.5854 31.9982 20.7161 32.7297 20.7161 33.5135ZM18.6782 33.5135C18.6782 32.8133 18.5371 32.1811 18.255 31.6167C17.9728 31.042 17.5862 30.5874 17.095 30.253C16.6038 29.9185 16.0343 29.7513 15.3863 29.7513C14.7384 29.7513 14.1688 29.9185 13.6777 30.253C13.1865 30.5874 12.7998 31.0367 12.5177 31.6011C12.246 32.1654 12.1101 32.8029 12.1101 33.5135C12.1101 34.2137 12.246 34.8512 12.5177 35.4259C12.7998 35.9903 13.1865 36.4396 13.6777 36.774C14.1688 37.1085 14.7384 37.2757 15.3863 37.2757C16.0343 37.2757 16.6038 37.1085 17.095 36.774C17.5862 36.4396 17.9728 35.9903 18.255 35.4259C18.5371 34.8512 18.6782 34.2137 18.6782 33.5135ZM23.503 28.0113C23.6493 28.0113 23.8009 28.0531 23.9576 28.1367C24.1248 28.2099 24.2502 28.3092 24.3338 28.4346L28.143 34.2973L27.3593 34.2659L31.2625 28.4346C31.4611 28.1524 31.7171 28.0113 32.0306 28.0113C32.2814 28.0113 32.5061 28.1002 32.7047 28.2778C32.9032 28.4555 33.0025 28.6854 33.0025 28.9675V38.0438C33.0025 38.3155 32.9137 38.5454 32.736 38.7335C32.5584 38.9112 32.3232 39 32.0306 39C31.738 39 31.4977 38.9112 31.3095 38.7335C31.1319 38.5454 31.0431 38.3155 31.0431 38.0438V30.6605L31.6544 30.8016L28.4566 35.6767C28.3625 35.7917 28.2423 35.891 28.096 35.9746C27.9602 36.0582 27.8191 36.0948 27.6728 36.0843C27.5369 36.0948 27.3958 36.0582 27.2495 35.9746C27.1137 35.891 26.9987 35.7917 26.9047 35.6767L23.9106 30.9427L24.3182 30.1119V38.0438C24.3182 38.3155 24.2346 38.5454 24.0674 38.7335C23.9002 38.9112 23.6807 39 23.409 39C23.1477 39 22.9335 38.9112 22.7663 38.7335C22.5991 38.5454 22.5155 38.3155 22.5155 38.0438V28.9675C22.5155 28.7063 22.6095 28.4816 22.7976 28.2935C22.9962 28.1054 23.2313 28.0113 23.503 28.0113ZM45.4543 33.5135C45.4543 34.2973 45.3237 35.0288 45.0624 35.7081C44.8011 36.3874 44.4302 36.9883 43.9494 37.5108C43.4792 38.0229 42.9148 38.4252 42.2565 38.7178C41.6085 39.0105 40.8979 39.1568 40.1246 39.1568C39.3512 39.1568 38.6406 39.0105 37.9927 38.7178C37.3447 38.4252 36.7804 38.0229 36.2997 37.5108C35.8294 36.9883 35.4636 36.3874 35.2024 35.7081C34.9411 35.0288 34.8105 34.2973 34.8105 33.5135C34.8105 32.7297 34.9411 31.9982 35.2024 31.3189C35.4636 30.6396 35.8294 30.0439 36.2997 29.5319C36.7804 29.0093 37.3447 28.6018 37.9927 28.3092C38.6406 28.0166 39.3512 27.8702 40.1246 27.8702C40.8979 27.8702 41.6085 28.0166 42.2565 28.3092C42.9148 28.6018 43.4792 29.0093 43.9494 29.5319C44.4302 30.0439 44.8011 30.6396 45.0624 31.3189C45.3237 31.9982 45.4543 32.7297 45.4543 33.5135ZM43.4165 33.5135C43.4165 32.8133 43.2754 32.1811 42.9932 31.6167C42.7111 31.042 42.3244 30.5874 41.8332 30.253C41.342 29.9185 40.7725 29.7513 40.1246 29.7513C39.4766 29.7513 38.9071 29.9185 38.4159 30.253C37.9247 30.5874 37.5381 31.0367 37.2559 31.6011C36.9842 32.1654 36.8483 32.8029 36.8483 33.5135C36.8483 34.2137 36.9842 34.8512 37.2559 35.4259C37.5381 35.9903 37.9247 36.4396 38.4159 36.774C38.9071 37.1085 39.4766 37.2757 40.1246 37.2757C40.7725 37.2757 41.342 37.1085 41.8332 36.774C42.3244 36.4396 42.7111 35.9903 42.9932 35.4259C43.2754 34.8512 43.4165 34.2137 43.4165 33.5135ZM51.9564 28.027C52.7088 28.027 53.3777 28.1681 53.9629 28.4502C54.5481 28.7324 55.0393 29.1295 55.4364 29.6416C55.844 30.1432 56.1471 30.7284 56.3456 31.3973C56.5546 32.0557 56.6591 32.7611 56.6591 33.5135C56.6591 34.5272 56.4762 35.4521 56.1105 36.2881C55.7447 37.1137 55.2117 37.7721 54.5116 38.2632C53.8218 38.7544 52.9701 39 51.9564 39H48.2099C47.9382 39 47.7083 38.9112 47.5202 38.7335C47.3425 38.5454 47.2537 38.3155 47.2537 38.0438V28.9832C47.2537 28.7115 47.3425 28.4868 47.5202 28.3092C47.7083 28.1211 47.9382 28.027 48.2099 28.027H51.9564ZM51.7997 37.1973C52.458 37.1973 52.9962 37.0301 53.4143 36.6957C53.8323 36.3508 54.1353 35.9014 54.3234 35.3476C54.522 34.7832 54.6213 34.1719 54.6213 33.5135C54.6213 33.0223 54.5638 32.5573 54.4489 32.1184C54.3443 31.669 54.1771 31.2771 53.9472 30.9427C53.7173 30.5978 53.4247 30.3261 53.0694 30.1275C52.7141 29.929 52.2908 29.8297 51.7997 29.8297H49.0564L49.2132 29.6886V37.3697L49.1191 37.1973H51.7997ZM68.5545 33.5135C68.5545 34.2973 68.4239 35.0288 68.1627 35.7081C67.9014 36.3874 67.5304 36.9883 67.0497 37.5108C66.5794 38.0229 66.0151 38.4252 65.3567 38.7178C64.7088 39.0105 63.9981 39.1568 63.2248 39.1568C62.4515 39.1568 61.7408 39.0105 61.0929 38.7178C60.445 38.4252 59.8806 38.0229 59.3999 37.5108C58.9297 36.9883 58.5639 36.3874 58.3026 35.7081C58.0414 35.0288 57.9107 34.2973 57.9107 33.5135C57.9107 32.7297 58.0414 31.9982 58.3026 31.3189C58.5639 30.6396 58.9297 30.0439 59.3999 29.5319C59.8806 29.0093 60.445 28.6018 61.0929 28.3092C61.7408 28.0166 62.4515 27.8702 63.2248 27.8702C63.9981 27.8702 64.7088 28.0166 65.3567 28.3092C66.0151 28.6018 66.5794 29.0093 67.0497 29.5319C67.5304 30.0439 67.9014 30.6396 68.1627 31.3189C68.4239 31.9982 68.5545 32.7297 68.5545 33.5135ZM66.5167 33.5135C66.5167 32.8133 66.3756 32.1811 66.0935 31.6167C65.8113 31.042 65.4246 30.5874 64.9335 30.253C64.4423 29.9185 63.8727 29.7513 63.2248 29.7513C62.5769 29.7513 62.0073 29.9185 61.5161 30.253C61.025 30.5874 60.6383 31.0367 60.3561 31.6011C60.0844 32.1654 59.9486 32.8029 59.9486 33.5135C59.9486 34.2137 60.0844 34.8512 60.3561 35.4259C60.6383 35.9903 61.025 36.4396 61.5161 36.774C62.0073 37.1085 62.5769 37.2757 63.2248 37.2757C63.8727 37.2757 64.4423 37.1085 64.9335 36.774C65.4246 36.4396 65.8113 35.9903 66.0935 35.4259C66.3756 34.8512 66.5167 34.2137 66.5167 33.5135ZM71.4826 39C71.19 39 70.9287 38.9112 70.6988 38.7335C70.4689 38.5454 70.3539 38.3155 70.3539 38.0438V28.9832C70.3539 28.7115 70.4428 28.4868 70.6204 28.3092C70.8085 28.1211 71.0385 28.027 71.3102 28.027H75.8248C76.3682 28.027 76.875 28.1733 77.3453 28.4659C77.826 28.7481 78.2127 29.1452 78.5053 29.6573C78.7979 30.1589 78.9442 30.7389 78.9442 31.3973C78.9442 31.7944 78.8606 32.1811 78.6934 32.5573C78.5367 32.9335 78.3172 33.2731 78.035 33.5762C77.7633 33.8793 77.455 34.1144 77.1102 34.2816L77.1259 33.9211C77.4185 34.0778 77.6588 34.2659 77.8469 34.4854C78.0455 34.6944 78.197 34.9243 78.3015 35.1751C78.4165 35.4155 78.4844 35.6767 78.5053 35.9589C78.5471 36.2202 78.5732 36.4501 78.5837 36.6486C78.6046 36.8472 78.6359 37.0144 78.6778 37.1503C78.73 37.2861 78.8241 37.3906 78.9599 37.4638C79.1898 37.5996 79.3309 37.7982 79.3832 38.0595C79.4459 38.3103 79.3884 38.535 79.2107 38.7335C79.0958 38.8694 78.9495 38.9582 78.7718 39C78.5941 39.0314 78.4165 39.0314 78.2388 39C78.0612 38.9582 77.9149 38.9059 77.7999 38.8432C77.6223 38.7387 77.4446 38.5872 77.2669 38.3886C77.0893 38.1796 76.943 37.9027 76.828 37.5578C76.7235 37.213 76.6713 36.7688 76.6713 36.2254C76.6713 36.0477 76.6399 35.8858 76.5772 35.7395C76.5145 35.5827 76.4257 35.4521 76.3107 35.3476C76.1958 35.2326 76.0495 35.149 75.8718 35.0967C75.6941 35.034 75.4851 35.0027 75.2448 35.0027H72.0783L72.3134 34.6422V38.0438C72.3134 38.3155 72.2403 38.5454 72.094 38.7335C71.9476 38.9112 71.7439 39 71.4826 39ZM72.094 33.3881H75.7464C75.9345 33.3881 76.1174 33.3045 76.295 33.1373C76.4727 32.9596 76.619 32.7245 76.734 32.4319C76.8489 32.1288 76.9064 31.7996 76.9064 31.4443C76.9064 30.9845 76.781 30.603 76.5302 30.3C76.2898 29.9865 76.0286 29.8297 75.7464 29.8297H72.1253L72.3134 29.3281V33.7643L72.094 33.3881ZM91.0578 33.5135C91.0578 34.2973 90.9271 35.0288 90.6659 35.7081C90.4046 36.3874 90.0336 36.9883 89.5529 37.5108C89.0826 38.0229 88.5183 38.4252 87.8599 38.7178C87.212 39.0105 86.5014 39.1568 85.728 39.1568C84.9547 39.1568 84.2441 39.0105 83.5961 38.7178C82.9482 38.4252 82.3839 38.0229 81.9031 37.5108C81.4329 36.9883 81.0671 36.3874 80.8058 35.7081C80.5446 35.0288 80.414 34.2973 80.414 33.5135C80.414 32.7297 80.5446 31.9982 80.8058 31.3189C81.0671 30.6396 81.4329 30.0439 81.9031 29.5319C82.3839 29.0093 82.9482 28.6018 83.5961 28.3092C84.2441 28.0166 84.9547 27.8702 85.728 27.8702C86.5014 27.8702 87.212 28.0166 87.8599 28.3092C88.5183 28.6018 89.0826 29.0093 89.5529 29.5319C90.0336 30.0439 90.4046 30.6396 90.6659 31.3189C90.9271 31.9982 91.0578 32.7297 91.0578 33.5135ZM89.0199 33.5135C89.0199 32.8133 88.8788 32.1811 88.5967 31.6167C88.3145 31.042 87.9278 30.5874 87.4367 30.253C86.9455 29.9185 86.376 29.7513 85.728 29.7513C85.0801 29.7513 84.5105 29.9185 84.0194 30.253C83.5282 30.5874 83.1415 31.0367 82.8594 31.6011C82.5877 32.1654 82.4518 32.8029 82.4518 33.5135C82.4518 34.2137 82.5877 34.8512 82.8594 35.4259C83.1415 35.9903 83.5282 36.4396 84.0194 36.774C84.5105 37.1085 85.0801 37.2757 85.728 37.2757C86.376 37.2757 86.9455 37.1085 87.4367 36.774C87.9278 36.4396 88.3145 35.9903 88.5967 35.4259C88.8788 34.8512 89.0199 34.2137 89.0199 33.5135Z" fill="white"/>
</svg>
